<svg width="608" height="75" viewBox="0 0 608 75" fill="none" xmlns="http://www.w3.org/2000/svg">
<path d="M56.6 50.4001C56.6 58.4668 53.7333 64.5001 48 68.5001C42.2667 72.4334 34.6333 74.4001 25.1 74.4001C19.5667 74.4001 14.7 73.8001 10.5 72.6001C6.3 71.3334 3.26667 69.7668 1.4 67.9001C0.8 66.4334 0.5 64.8668 0.5 63.2001C0.5 61.4668 0.633333 59.8001 0.9 58.2001C1.63333 54.2668 2.86667 51.2001 4.6 49.0001H5.5C5.43333 49.4001 5.4 49.8334 5.4 50.3001C5.4 55.2334 7.33333 59.6668 11.2 63.6001C15.1333 67.4668 20.4667 69.4001 27.2 69.4001C31.7333 69.4001 35.2 68.4668 37.6 66.6001C40.0667 64.6668 41.3 62.5001 41.3 60.1001C41.3 57.6334 40.4667 55.5334 38.8 53.8001C37.1333 52.0668 34.4333 50.3334 30.7 48.6001L14.4 41.0001C9.8 38.9334 6.46667 36.0334 4.4 32.3001C2.73333 29.3668 1.9 26.1334 1.9 22.6001C1.9 15.4001 4.33333 9.93343 9.2 6.2001C13.2667 3.13343 18.6667 1.6001 25.4 1.6001C29.8 1.6001 35.4333 1.93343 42.3 2.6001H50.1L47.9 18.9001H46.9C46.9 15.2334 45.4667 12.2668 42.6 10.0001C39.7333 7.73343 36.0667 6.6001 31.6 6.6001C27.2 6.6001 23.7667 7.36677 21.3 8.9001C18.9 10.4334 17.6 12.4668 17.4 15.0001C17.1333 18.1334 19.1333 20.8001 23.4 23.0001C24.1333 23.4001 25.1 23.8334 26.3 24.3001L45 33.0001C52.7333 36.5334 56.6 42.3334 56.6 50.4001Z" fill="white"/>
<path d="M105.453 1.6001C114.053 1.6001 121.453 3.03343 127.653 5.9001C133.92 8.76677 138.72 12.9668 142.053 18.5001C145.386 23.9668 147.053 30.4668 147.053 38.0001C147.053 49.4001 143.353 58.3334 135.953 64.8001C128.553 71.2001 118.386 74.4001 105.453 74.4001C92.5198 74.4001 82.3531 71.2001 74.9531 64.8001C67.6198 58.3334 63.9531 49.4001 63.9531 38.0001C63.9531 26.6001 67.6198 17.7001 74.9531 11.3001C82.3531 4.83343 92.5198 1.6001 105.453 1.6001ZM91.1531 61.1001C94.6198 66.6334 99.3865 69.4001 105.453 69.4001C111.586 69.4001 116.353 66.6334 119.753 61.1001C123.22 55.5668 124.953 47.8668 124.953 38.0001C124.953 28.1334 123.22 20.4334 119.753 14.9001C116.353 9.36677 111.586 6.6001 105.453 6.6001C99.3865 6.6001 94.6198 9.36677 91.1531 14.9001C87.7531 20.4334 86.0531 28.1334 86.0531 38.0001C86.0531 47.8668 87.7531 55.5668 91.1531 61.1001Z" fill="white"/>
<path d="M217.839 23.5001C217.839 26.5668 217.206 29.5668 215.939 32.5001C214.739 35.3668 212.972 37.7334 210.639 39.6001C206.439 43.0001 201.972 44.7001 197.239 44.7001C192.439 44.7001 187.906 43.1668 183.639 40.1001V39.1001C186.039 38.7001 187.839 38.0668 189.039 37.2001C190.306 36.3334 191.306 35.5001 192.039 34.7001C193.706 32.9001 194.806 30.8001 195.339 28.4001C195.939 26.0001 196.239 24.3001 196.239 23.3001C196.239 18.0334 195.106 14.1668 192.839 11.7001C190.572 9.23343 187.539 8.0001 183.739 8.0001H180.239V65.7001C180.306 67.4334 180.939 68.9334 182.139 70.2001C183.406 71.4001 184.906 72.0001 186.639 72.0001H187.939V73.0001H152.039V72.0001H153.339C155.739 72.0001 157.572 70.9668 158.839 68.9001C159.439 67.9001 159.739 66.8334 159.739 65.7001V9.8001C159.739 8.2001 159.072 6.83343 157.739 5.7001C156.472 4.56676 155.006 4.0001 153.339 4.0001H152.139L152.039 3.0001H190.139C199.272 3.0001 206.272 4.9001 211.139 8.7001C215.606 12.1001 217.839 17.0334 217.839 23.5001Z" fill="white"/>
<path d="M286.742 14.0001C287.809 16.3334 288.342 18.7668 288.342 21.3001C288.342 23.7668 288.076 25.9668 287.542 27.9001C287.009 29.7668 286.176 31.6334 285.042 33.5001C282.576 37.5001 278.342 39.9668 272.342 40.9001C274.942 41.6334 277.276 42.9334 279.342 44.8001C281.542 46.6668 283.609 49.2668 285.542 52.6001C290.542 61.1334 294.376 66.6334 297.042 69.1001C299.042 70.9668 301.576 71.9334 304.642 72.0001V73.0001H292.142C283.476 73.0001 277.276 72.0334 273.542 70.1001C268.209 67.3668 264.409 62.6668 262.142 56.0001C261.542 54.0668 261.009 52.0334 260.542 49.9001C260.142 47.7668 259.776 46.2334 259.442 45.3001C259.176 44.3001 258.842 43.4001 258.442 42.6001C258.042 41.7334 257.609 41.0668 257.142 40.6001C256.342 39.8001 255.409 39.2001 254.342 38.8001V37.8001H255.942C259.809 37.8001 262.709 36.0334 264.642 32.5001C265.642 30.6334 266.242 28.6334 266.442 26.5001C266.709 24.3001 266.842 22.9334 266.842 22.4001C266.842 21.8668 266.842 21.5334 266.842 21.4001C266.376 12.6001 262.576 8.2001 255.442 8.2001H251.042V65.7001C251.042 67.4334 251.676 68.9334 252.942 70.2001C254.209 71.4001 255.709 72.0001 257.442 72.0001H258.642V73.0001H222.742V72.0001H224.042C225.776 72.0001 227.242 71.4001 228.442 70.2001C229.709 69.0001 230.376 67.5334 230.442 65.8001V10.3001C230.376 7.83343 229.309 6.0001 227.242 4.8001C226.242 4.26676 225.176 4.0001 224.042 4.0001H222.742V3.0001H261.842C274.909 3.0001 283.209 6.66676 286.742 14.0001Z" fill="white"/>
<path d="M373.741 72.0001H374.541V73.0001H336.641V72.0001H337.541C339.008 72.0001 340.108 71.5668 340.841 70.7001C341.575 69.7668 341.941 68.9334 341.941 68.2001C341.941 67.4001 341.775 66.5668 341.441 65.7001L337.541 56.4001H316.141L312.141 65.7001C311.808 66.5668 311.641 67.2668 311.641 67.8001C311.641 68.3334 311.741 68.9334 311.941 69.6001C312.208 70.2001 312.708 70.7668 313.441 71.3001C314.241 71.7668 315.075 72.0001 315.941 72.0001H316.841V73.0001H294.541V72.0001H295.441C296.975 72.0001 298.475 71.5668 299.941 70.7001C301.475 69.7668 302.741 68.4001 303.741 66.6001L327.041 15.5001C330.575 8.03343 332.475 3.06676 332.741 0.600098H333.641L365.341 66.5001C367.475 70.1668 370.275 72.0001 373.741 72.0001ZM318.341 51.4001H335.441L327.041 31.4001L318.341 51.4001Z" fill="white"/>
<path d="M454.714 4.0001C453.047 4.0001 451.614 4.6001 450.414 5.8001C449.214 6.93343 448.581 8.33343 448.514 10.0001V61.6001C448.514 66.5334 448.847 70.3334 449.514 73.0001L449.814 74.4001H448.914L401.014 31.8001V65.9001C401.014 68.3001 402.047 70.0668 404.114 71.2001C405.047 71.7334 406.047 72.0001 407.114 72.0001H409.014V73.0001H372.414V72.0001H374.314C375.981 72.0001 377.414 71.4334 378.614 70.3001C379.814 69.1001 380.414 67.6334 380.414 65.9001V14.0001C380.414 9.33343 380.081 5.63343 379.414 2.9001L379.114 1.5001H380.114L428.014 44.1001V10.1001C427.947 8.36676 427.314 6.93343 426.114 5.8001C424.914 4.6001 423.481 4.0001 421.814 4.0001H419.914V3.0001H456.514V4.0001H454.714Z" fill="white"/>
<path d="M502.035 1.6001C510.635 1.6001 518.035 3.03343 524.235 5.9001C530.502 8.76677 535.302 12.9668 538.635 18.5001C541.968 23.9668 543.635 30.4668 543.635 38.0001C543.635 49.4001 539.935 58.3334 532.535 64.8001C525.135 71.2001 514.968 74.4001 502.035 74.4001C489.102 74.4001 478.935 71.2001 471.535 64.8001C464.202 58.3334 460.535 49.4001 460.535 38.0001C460.535 26.6001 464.202 17.7001 471.535 11.3001C478.935 4.83343 489.102 1.6001 502.035 1.6001ZM487.735 61.1001C491.202 66.6334 495.968 69.4001 502.035 69.4001C508.168 69.4001 512.935 66.6334 516.335 61.1001C519.802 55.5668 521.535 47.8668 521.535 38.0001C521.535 28.1334 519.802 20.4334 516.335 14.9001C512.935 9.36677 508.168 6.6001 502.035 6.6001C495.968 6.6001 491.202 9.36677 487.735 14.9001C484.335 20.4334 482.635 28.1334 482.635 38.0001C482.635 47.8668 484.335 55.5668 487.735 61.1001Z" fill="white"/>
<path d="M607.674 50.4001C607.674 58.4668 604.808 64.5001 599.074 68.5001C593.341 72.4334 585.708 74.4001 576.174 74.4001C570.641 74.4001 565.774 73.8001 561.574 72.6001C557.374 71.3334 554.341 69.7668 552.474 67.9001C551.874 66.4334 551.574 64.8668 551.574 63.2001C551.574 61.4668 551.708 59.8001 551.974 58.2001C552.708 54.2668 553.941 51.2001 555.674 49.0001H556.574C556.508 49.4001 556.474 49.8334 556.474 50.3001C556.474 55.2334 558.408 59.6668 562.274 63.6001C566.208 67.4668 571.541 69.4001 578.274 69.4001C582.808 69.4001 586.274 68.4668 588.674 66.6001C591.141 64.6668 592.374 62.5001 592.374 60.1001C592.374 57.6334 591.541 55.5334 589.874 53.8001C588.208 52.0668 585.508 50.3334 581.774 48.6001L565.474 41.0001C560.874 38.9334 557.541 36.0334 555.474 32.3001C553.808 29.3668 552.974 26.1334 552.974 22.6001C552.974 15.4001 555.408 9.93343 560.274 6.2001C564.341 3.13343 569.741 1.6001 576.474 1.6001C580.874 1.6001 586.508 1.93343 593.374 2.6001H601.174L598.974 18.9001H597.974C597.974 15.2334 596.541 12.2668 593.674 10.0001C590.808 7.73343 587.141 6.6001 582.674 6.6001C578.274 6.6001 574.841 7.36677 572.374 8.9001C569.974 10.4334 568.674 12.4668 568.474 15.0001C568.208 18.1334 570.208 20.8001 574.474 23.0001C575.208 23.4001 576.174 23.8334 577.374 24.3001L596.074 33.0001C603.808 36.5334 607.674 42.3334 607.674 50.4001Z" fill="white"/>
</svg>
